<svg width="31" height="31" viewBox="0 0 31 31" fill="none" xmlns="http://www.w3.org/2000/svg">
<path fill-rule="evenodd" clip-rule="evenodd" d="M13.547 4.89283C14.8186 3.62105 16.5432 2.90646 18.3417 2.90625H21.8292C22.0861 2.90625 22.3325 3.00831 22.5142 3.18999C22.6958 3.37167 22.7979 3.61807 22.7979 3.875V8.525C22.7979 8.78193 22.6958 9.02833 22.5142 9.21001C22.3325 9.39169 22.0861 9.49375 21.8292 9.49375H18.3417C18.3162 9.49375 18.291 9.49876 18.2675 9.5085C18.244 9.51824 18.2226 9.53251 18.2047 9.5505C18.1867 9.56849 18.1724 9.58985 18.1627 9.61335C18.1529 9.63686 18.1479 9.66206 18.1479 9.6875V12.2062H21.8292C21.9764 12.2062 22.1218 12.2397 22.2542 12.3042C22.3866 12.3687 22.5025 12.4626 22.5931 12.5787C22.6838 12.6947 22.7468 12.8299 22.7774 12.974C22.8079 13.1181 22.8052 13.2672 22.7695 13.4101L21.607 18.0601C21.5545 18.2697 21.4335 18.4558 21.2631 18.5888C21.0927 18.7217 20.8828 18.7939 20.6667 18.7937H18.1479V27.125C18.1479 27.3819 18.0458 27.6283 17.8642 27.81C17.6825 27.9917 17.4361 28.0938 17.1792 28.0938H12.5292C12.2722 28.0938 12.0258 27.9917 11.8441 27.81C11.6625 27.6283 11.5604 27.3819 11.5604 27.125V18.7937H9.04166C8.78473 18.7937 8.53832 18.6917 8.35665 18.51C8.17497 18.3283 8.07291 18.0819 8.07291 17.825V13.175C8.07291 13.0478 8.09796 12.9218 8.14665 12.8043C8.19533 12.6867 8.26669 12.5799 8.35665 12.49C8.4466 12.4 8.5534 12.3287 8.67093 12.28C8.78847 12.2313 8.91444 12.2062 9.04166 12.2062H11.5604V9.6875C11.5606 7.88908 12.2752 6.1644 13.547 4.89283ZM18.3417 4.84375C17.057 4.84375 15.825 5.35407 14.9166 6.26245C14.0082 7.17083 13.4979 8.40286 13.4979 9.6875V13.175C13.4979 13.4319 13.3958 13.6783 13.2142 13.86C13.0325 14.0417 12.7861 14.1437 12.5292 14.1437H10.0104V16.8562H12.5292C12.7861 16.8562 13.0325 16.9583 13.2142 17.14C13.3958 17.3217 13.4979 17.5681 13.4979 17.825V26.1562H16.2104V17.825C16.2104 17.5681 16.3125 17.3217 16.4941 17.14C16.6758 16.9583 16.9222 16.8562 17.1792 16.8562H19.9097L20.5879 14.1437H17.1792C16.9222 14.1437 16.6758 14.0417 16.4941 13.86C16.3125 13.6783 16.2104 13.4319 16.2104 13.175V9.6875C16.2104 9.12226 16.4349 8.58017 16.8346 8.18048C17.2343 7.78079 17.7764 7.55625 18.3417 7.55625H20.8604V4.84375H18.3417Z" fill="white"/>
</svg>
