<svg width="31" height="31" viewBox="0 0 31 31" fill="none" xmlns="http://www.w3.org/2000/svg">
<path d="M25.8947 14.3654C25.8675 14.2491 25.8121 14.1413 25.7333 14.0515C25.6545 13.9617 25.5548 13.8928 25.443 13.8507L18.2706 11.1612L20.087 2.0792C20.118 1.92419 20.0976 1.7633 20.0289 1.62094C19.9602 1.47858 19.8469 1.36251 19.7063 1.29035C19.5656 1.21818 19.4053 1.19384 19.2496 1.22104C19.0939 1.24823 18.9513 1.32547 18.8434 1.44103L5.2809 15.9723C5.19945 16.0596 5.14078 16.1657 5.11008 16.2811C5.07938 16.3965 5.0776 16.5177 5.1049 16.6339C5.1322 16.7502 5.18773 16.8579 5.26659 16.9476C5.34544 17.0373 5.44518 17.1062 5.55699 17.1481L12.7294 19.8376L10.913 28.9196C10.8818 29.0747 10.902 29.2357 10.9707 29.3782C11.0393 29.5207 11.1525 29.6369 11.2932 29.7092C11.396 29.7613 11.5097 29.7887 11.625 29.7891C11.7247 29.7891 11.8234 29.7685 11.9149 29.7288C12.0063 29.689 12.0886 29.6308 12.1566 29.5578L25.7191 15.0265C25.8004 14.9392 25.859 14.8332 25.8896 14.7179C25.9202 14.6026 25.922 14.4815 25.8947 14.3654ZM12.8359 26.6963L14.2709 19.5179C14.3049 19.3488 14.2777 19.1731 14.1941 19.0222C14.1104 18.8714 13.9758 18.7552 13.8144 18.6945L7.08156 16.1697L18.1568 4.30248L16.7255 11.4821C16.6914 11.6512 16.7187 11.8269 16.8023 11.9778C16.8859 12.1287 17.0205 12.2448 17.182 12.3056L23.9148 14.8304L12.8359 26.6963Z" fill="white"/>
</svg>
