<svg width="39" height="39" viewBox="0 0 39 39" fill="none" xmlns="http://www.w3.org/2000/svg">
<path d="M33.3986 8.2645C32.6018 7.45557 31.6558 6.81386 30.6146 6.37605C29.5734 5.93823 28.4574 5.71289 27.3304 5.71289C26.2033 5.71289 25.0873 5.93823 24.0461 6.37605C23.0049 6.81386 22.0589 7.45557 21.2622 8.2645L19.6086 9.94254L17.9551 8.2645C16.3457 6.63127 14.1629 5.71374 11.8869 5.71374C9.6109 5.71374 7.4281 6.63127 5.81872 8.2645C4.20933 9.89773 3.30519 12.1129 3.30519 14.4226C3.30519 16.7323 4.20933 18.9474 5.81872 20.5807L7.47226 22.2587L19.6086 34.5749L31.745 22.2587L33.3986 20.5807C34.1957 19.7721 34.828 18.8121 35.2595 17.7555C35.6909 16.6989 35.9129 15.5663 35.9129 14.4226C35.9129 13.2788 35.6909 12.1463 35.2595 11.0897C34.828 10.0331 34.1957 9.07306 33.3986 8.2645V8.2645Z" stroke="white" stroke-width="3" stroke-linecap="round" stroke-linejoin="round"/>
</svg>
