<svg width="21" height="20" viewBox="0 0 21 20" fill="none" xmlns="http://www.w3.org/2000/svg">
<path d="M7.875 14.1667H4.375C3.91087 14.1667 3.46575 14.3423 3.13756 14.6548C2.80937 14.9674 2.625 15.3913 2.625 15.8333C2.625 16.2754 2.80937 16.6993 3.13756 17.0118C3.46575 17.3244 3.91087 17.5 4.375 17.5H6.125C6.58913 17.5 7.03425 17.3244 7.36244 17.0118C7.69063 16.6993 7.875 16.2754 7.875 15.8333V14.1667ZM18.375 12.5H14.875C14.4109 12.5 13.9658 12.6756 13.6376 12.9882C13.3094 13.3007 13.125 13.7246 13.125 14.1667C13.125 14.6087 13.3094 15.0326 13.6376 15.3452C13.9658 15.6577 14.4109 15.8333 14.875 15.8333H16.625C17.0891 15.8333 17.5342 15.6577 17.8624 15.3452C18.1906 15.0326 18.375 14.6087 18.375 14.1667V12.5Z" stroke="white" stroke-width="2" stroke-linecap="round" stroke-linejoin="round"/>
<path d="M7.875 14.1667V4.16667L18.375 2.5V12.5" stroke="white" stroke-width="2" stroke-linecap="round" stroke-linejoin="round"/>
</svg>
