<svg width="31" height="31" viewBox="0 0 31 31" fill="none" xmlns="http://www.w3.org/2000/svg">
<path d="M15.5 10.2042C14.4526 10.2042 13.4287 10.5148 12.5578 11.0967C11.6869 11.6786 11.0081 12.5057 10.6073 13.4734C10.2065 14.4411 10.1016 15.5059 10.3059 16.5332C10.5103 17.5605 11.0146 18.5041 11.7553 19.2447C12.4959 19.9853 13.4395 20.4897 14.4668 20.6941C15.4941 20.8984 16.5589 20.7935 17.5266 20.3927C18.4943 19.9919 19.3214 19.3131 19.9033 18.4422C20.4852 17.5713 20.7958 16.5474 20.7958 15.5C20.7975 14.8041 20.6617 14.1146 20.3962 13.4714C20.1306 12.8281 19.7406 12.2436 19.2485 11.7515C18.7564 11.2594 18.1719 10.8693 17.5286 10.6038C16.8853 10.3383 16.1959 10.2025 15.5 10.2042ZM15.5 18.9487C14.8179 18.9487 14.1511 18.7465 13.584 18.3675C13.0168 17.9886 12.5748 17.45 12.3138 16.8198C12.0527 16.1896 11.9844 15.4962 12.1175 14.8272C12.2506 14.1582 12.579 13.5437 13.0614 13.0614C13.5437 12.579 14.1582 12.2506 14.8272 12.1175C15.4962 11.9844 16.1896 12.0527 16.8198 12.3138C17.4499 12.5748 17.9886 13.0168 18.3675 13.584C18.7465 14.1511 18.9487 14.8179 18.9487 15.5C18.9487 16.4147 18.5854 17.2919 17.9386 17.9386C17.2919 18.5854 16.4147 18.9487 15.5 18.9487ZM22.2554 9.98458C22.2554 10.24 22.1797 10.4898 22.0377 10.7022C21.8958 10.9146 21.6941 11.0802 21.458 11.1779C21.222 11.2757 20.9623 11.3013 20.7118 11.2514C20.4612 11.2016 20.231 11.0786 20.0504 10.8979C19.8698 10.7173 19.7467 10.4871 19.6969 10.2366C19.6471 9.98601 19.6726 9.7263 19.7704 9.49028C19.8682 9.25426 20.0337 9.05253 20.2461 8.9106C20.4585 8.76867 20.7083 8.69291 20.9637 8.69291C21.3063 8.69291 21.6349 8.829 21.8771 9.07123C22.1193 9.31347 22.2554 9.64201 22.2554 9.98458ZM25.7558 11.2762C25.7948 9.67023 25.1956 8.11424 24.0896 6.94916C23.5158 6.3945 22.8383 5.95842 22.0958 5.66586C21.3533 5.3733 20.5604 5.23 19.7625 5.24416C18.0833 5.16666 12.9167 5.16666 11.2375 5.24416C9.63222 5.2094 8.07778 5.80797 6.91041 6.91041C5.80435 8.07549 5.20518 9.63148 5.24416 11.2375C5.16666 12.9167 5.16666 18.0833 5.24416 19.7625C5.20518 21.3685 5.80435 22.9245 6.91041 24.0896C8.07778 25.192 9.63222 25.7906 11.2375 25.7558C12.9425 25.8592 18.0575 25.8592 19.7625 25.7558C21.3685 25.7948 22.9245 25.1956 24.0896 24.0896C25.1956 22.9245 25.7948 21.3685 25.7558 19.7625C25.8333 18.0833 25.8333 12.9167 25.7558 11.2375V11.2762ZM23.56 21.6096C23.3846 22.0538 23.1199 22.4573 22.7821 22.7951C22.4444 23.1328 22.0409 23.3975 21.5967 23.5729C19.5915 23.9783 17.5415 24.1173 15.5 23.9862C13.4627 24.1161 11.4172 23.9772 9.41624 23.5729C8.97199 23.3975 8.56849 23.1328 8.23077 22.7951C7.89304 22.4573 7.62828 22.0538 7.45291 21.6096C6.91041 20.2404 7.02666 17.0112 7.02666 15.5129C7.02666 14.0146 6.91041 10.7725 7.45291 9.41624C7.62334 8.96761 7.8862 8.55982 8.22444 8.21935C8.56268 7.87889 8.96873 7.61336 9.41624 7.43999C11.4172 7.03573 13.4627 6.89676 15.5 7.02666C17.5415 6.89562 19.5915 7.03459 21.5967 7.43999C22.0409 7.61537 22.4444 7.88012 22.7821 8.21785C23.1199 8.55558 23.3846 8.95907 23.56 9.40333C24.1025 10.7725 23.9733 14.0017 23.9733 15.5C23.9733 16.9983 24.1025 20.2404 23.56 21.5967V21.6096Z" fill="white"/>
</svg>
